<mxfile host="app.diagrams.net" modified="2023-10-31T23:39:58.765Z" agent="Mozilla/5.0 (Macintosh; Intel Mac OS X 10_15_7) AppleWebKit/537.36 (KHTML, like Gecko) Chrome/114.0.0.0 Safari/537.36" etag="SOnhwqa0svMNo4QdmPlM" version="22.0.5" type="device">
  <diagram name="Page-1" id="jmv0JCSVlULwlOyFBuHg">
    <mxGraphModel dx="1158" dy="681" grid="1" gridSize="10" guides="1" tooltips="1" connect="1" arrows="1" fold="1" page="1" pageScale="1" pageWidth="850" pageHeight="1100" math="0" shadow="0">
      <root>
        <mxCell id="0" />
        <mxCell id="1" parent="0" />
        <mxCell id="XWpHCNLex6STp4vf1nMq-1" value="Touroll" style="strokeWidth=1;shadow=0;dashed=0;align=center;html=1;shape=mxgraph.mockup.containers.window;align=left;verticalAlign=top;spacingLeft=8;strokeColor2=#008cff;strokeColor3=#c4c4c4;fontColor=#666666;mainText=;fontSize=17;labelBackgroundColor=none;whiteSpace=wrap;" vertex="1" parent="1">
          <mxGeometry x="150" y="60" width="550" height="450" as="geometry" />
        </mxCell>
        <mxCell id="XWpHCNLex6STp4vf1nMq-8" value="Generate Video" style="strokeWidth=1;shadow=0;dashed=0;align=center;html=1;shape=mxgraph.mockup.buttons.button;strokeColor=#666666;fontColor=#ffffff;mainText=;buttonStyle=round;fontSize=17;fontStyle=1;fillColor=#008cff;whiteSpace=wrap;" vertex="1" parent="1">
          <mxGeometry x="525" y="440" width="160" height="50" as="geometry" />
        </mxCell>
        <mxCell id="XWpHCNLex6STp4vf1nMq-35" value="&lt;font style=&quot;font-size: 28px;&quot;&gt;-&lt;/font&gt;&lt;font style=&quot;font-size: 15px;&quot;&gt;&amp;nbsp; &amp;nbsp;Project 1&lt;/font&gt;" style="strokeWidth=1;shadow=0;dashed=0;align=center;html=1;shape=mxgraph.mockup.text.textBox;fontColor=#666666;align=left;fontSize=17;spacingLeft=4;spacingTop=-3;whiteSpace=wrap;strokeColor=none;mainText=" vertex="1" parent="1">
          <mxGeometry x="164" y="113" width="120" height="27" as="geometry" />
        </mxCell>
        <mxCell id="XWpHCNLex6STp4vf1nMq-37" value="" style="strokeWidth=1;shadow=0;dashed=0;align=center;html=1;shape=mxgraph.mockup.containers.rrect;rSize=0;strokeColor=#666666;" vertex="1" parent="1">
          <mxGeometry x="164" y="150" width="120" height="220" as="geometry" />
        </mxCell>
        <mxCell id="XWpHCNLex6STp4vf1nMq-38" value="Group 1&amp;nbsp; &amp;nbsp;+" style="strokeColor=inherit;fillColor=inherit;gradientColor=inherit;strokeWidth=1;shadow=0;dashed=0;align=center;html=1;shape=mxgraph.mockup.containers.rrect;rSize=0;fontSize=17;fontColor=#666666;fontStyle=1;resizeWidth=1;whiteSpace=wrap;" vertex="1" parent="XWpHCNLex6STp4vf1nMq-37">
          <mxGeometry width="120" height="26" relative="1" as="geometry" />
        </mxCell>
        <mxCell id="XWpHCNLex6STp4vf1nMq-39" value="Group 2&amp;nbsp; &amp;nbsp;+" style="strokeColor=inherit;fillColor=inherit;gradientColor=inherit;strokeWidth=1;shadow=0;dashed=0;align=center;html=1;shape=mxgraph.mockup.containers.rrect;rSize=0;fontSize=17;fontColor=#666666;fontStyle=1;resizeWidth=1;whiteSpace=wrap;" vertex="1" parent="XWpHCNLex6STp4vf1nMq-37">
          <mxGeometry width="120" height="26" relative="1" as="geometry">
            <mxPoint y="26" as="offset" />
          </mxGeometry>
        </mxCell>
        <mxCell id="XWpHCNLex6STp4vf1nMq-40" value="Group 3&amp;nbsp; &amp;nbsp;-" style="strokeWidth=1;shadow=0;dashed=0;align=center;html=1;shape=mxgraph.mockup.containers.rrect;rSize=0;fontSize=17;fontColor=#ffffff;fontStyle=1;fillColor=#008cff;strokeColor=#008cff;resizeWidth=1;whiteSpace=wrap;" vertex="1" parent="XWpHCNLex6STp4vf1nMq-37">
          <mxGeometry width="120" height="26" relative="1" as="geometry">
            <mxPoint y="52" as="offset" />
          </mxGeometry>
        </mxCell>
        <mxCell id="XWpHCNLex6STp4vf1nMq-45" value="&lt;font style=&quot;font-size: 18px;&quot;&gt;image1.png&lt;/font&gt;" style="strokeWidth=1;shadow=0;dashed=0;align=center;html=1;shape=mxgraph.mockup.text.textBox;fontColor=#666666;align=left;fontSize=17;spacingLeft=4;spacingTop=-3;whiteSpace=wrap;strokeColor=default;mainText=;opacity=50;" vertex="1" parent="XWpHCNLex6STp4vf1nMq-37">
          <mxGeometry y="80" width="120" height="27" as="geometry" />
        </mxCell>
        <mxCell id="XWpHCNLex6STp4vf1nMq-46" value="&lt;font style=&quot;font-size: 18px;&quot;&gt;image2.png&lt;/font&gt;" style="strokeWidth=1;shadow=0;dashed=0;align=center;html=1;shape=mxgraph.mockup.text.textBox;fontColor=#666666;align=left;fontSize=17;spacingLeft=4;spacingTop=-3;whiteSpace=wrap;strokeColor=default;mainText=;opacity=50;" vertex="1" parent="XWpHCNLex6STp4vf1nMq-37">
          <mxGeometry y="106" width="120" height="27" as="geometry" />
        </mxCell>
        <mxCell id="XWpHCNLex6STp4vf1nMq-47" value="audio1.mp3" style="strokeWidth=1;shadow=0;dashed=0;align=center;shape=mxgraph.mockup.text.textBox;fontColor=#666666;align=left;fontSize=17;spacingLeft=4;spacingTop=-3;whiteSpace=wrap;strokeColor=default;mainText=;opacity=50;labelBackgroundColor=#dcdbdb;" vertex="1" parent="XWpHCNLex6STp4vf1nMq-37">
          <mxGeometry y="133" width="120" height="27" as="geometry" />
        </mxCell>
        <mxCell id="XWpHCNLex6STp4vf1nMq-48" value="video1.mp4" style="strokeWidth=1;shadow=0;dashed=0;align=center;shape=mxgraph.mockup.text.textBox;fontColor=#666666;align=left;fontSize=17;spacingLeft=4;spacingTop=-3;whiteSpace=wrap;strokeColor=default;mainText=;opacity=50;labelBackgroundColor=#dcdbdb;" vertex="1" parent="XWpHCNLex6STp4vf1nMq-37">
          <mxGeometry y="161" width="120" height="27" as="geometry" />
        </mxCell>
        <mxCell id="XWpHCNLex6STp4vf1nMq-49" value="&lt;span style=&quot;font-size: 18px;&quot;&gt;audio2.mp3&lt;/span&gt;" style="strokeWidth=1;shadow=0;dashed=0;align=center;html=1;shape=mxgraph.mockup.text.textBox;fontColor=#666666;align=left;fontSize=17;spacingLeft=4;spacingTop=-3;whiteSpace=wrap;strokeColor=default;mainText=;opacity=50;" vertex="1" parent="XWpHCNLex6STp4vf1nMq-37">
          <mxGeometry y="188" width="120" height="27" as="geometry" />
        </mxCell>
        <mxCell id="XWpHCNLex6STp4vf1nMq-99" value="" style="strokeColor=none;verticalLabelPosition=bottom;shadow=0;dashed=0;verticalAlign=top;strokeWidth=2;html=1;shape=mxgraph.mockup.misc.trashcanIcon;" vertex="1" parent="XWpHCNLex6STp4vf1nMq-37">
          <mxGeometry x="100" y="168" width="20" height="20" as="geometry" />
        </mxCell>
        <mxCell id="XWpHCNLex6STp4vf1nMq-100" value="" style="strokeColor=none;verticalLabelPosition=bottom;shadow=0;dashed=0;verticalAlign=top;strokeWidth=2;html=1;shape=mxgraph.mockup.misc.trashcanIcon;" vertex="1" parent="XWpHCNLex6STp4vf1nMq-37">
          <mxGeometry x="100" y="195" width="20" height="20" as="geometry" />
        </mxCell>
        <mxCell id="XWpHCNLex6STp4vf1nMq-42" value="&lt;font style=&quot;font-size: 28px;&quot;&gt;+&lt;/font&gt;&lt;font style=&quot;font-size: 15px;&quot;&gt;&amp;nbsp; &amp;nbsp;Project 2&lt;/font&gt;" style="strokeWidth=1;shadow=0;dashed=0;align=center;html=1;shape=mxgraph.mockup.text.textBox;fontColor=#666666;align=left;fontSize=17;spacingLeft=4;spacingTop=-3;whiteSpace=wrap;strokeColor=none;mainText=" vertex="1" parent="1">
          <mxGeometry x="164" y="390.5" width="120" height="27" as="geometry" />
        </mxCell>
        <mxCell id="XWpHCNLex6STp4vf1nMq-43" value="&lt;font style=&quot;font-size: 28px;&quot;&gt;+&lt;/font&gt;&lt;font style=&quot;font-size: 15px;&quot;&gt;&amp;nbsp; &amp;nbsp;Project 3&lt;/font&gt;" style="strokeWidth=1;shadow=0;dashed=0;align=center;html=1;shape=mxgraph.mockup.text.textBox;fontColor=#666666;align=left;fontSize=17;spacingLeft=4;spacingTop=-3;whiteSpace=wrap;strokeColor=none;mainText=" vertex="1" parent="1">
          <mxGeometry x="164" y="425.5" width="120" height="27" as="geometry" />
        </mxCell>
        <mxCell id="XWpHCNLex6STp4vf1nMq-65" value="Add Element" style="strokeWidth=1;shadow=0;dashed=0;align=center;html=1;shape=mxgraph.mockup.buttons.button;strokeColor=#666666;fontColor=#ffffff;mainText=;buttonStyle=round;fontSize=17;fontStyle=1;fillColor=#008cff;whiteSpace=wrap;" vertex="1" parent="1">
          <mxGeometry x="542" y="111.5" width="140" height="30" as="geometry" />
        </mxCell>
        <mxCell id="XWpHCNLex6STp4vf1nMq-75" value="" style="group" vertex="1" connectable="0" parent="1">
          <mxGeometry x="548.5" y="145" width="127" height="217" as="geometry" />
        </mxCell>
        <mxCell id="XWpHCNLex6STp4vf1nMq-66" value="" style="verticalLabelPosition=bottom;shadow=0;dashed=0;align=center;html=1;verticalAlign=top;strokeWidth=1;shape=mxgraph.mockup.forms.horSlider;strokeColor=#999999;sliderStyle=basic;sliderPos=20;handleStyle=circle;fillColor2=#ddeeff;" vertex="1" parent="XWpHCNLex6STp4vf1nMq-75">
          <mxGeometry x="8.5" y="59" width="110" height="40" as="geometry" />
        </mxCell>
        <mxCell id="XWpHCNLex6STp4vf1nMq-68" value="" style="verticalLabelPosition=bottom;shadow=0;dashed=0;align=center;html=1;verticalAlign=top;strokeWidth=1;shape=mxgraph.mockup.forms.horSlider;strokeColor=#999999;sliderStyle=basic;sliderPos=20;handleStyle=circle;fillColor2=#ddeeff;" vertex="1" parent="XWpHCNLex6STp4vf1nMq-75">
          <mxGeometry x="8.5" y="154" width="110" height="40" as="geometry" />
        </mxCell>
        <mxCell id="XWpHCNLex6STp4vf1nMq-70" value="Frame Width" style="strokeWidth=1;shadow=0;dashed=0;align=center;html=1;shape=mxgraph.mockup.text.textBox;fontColor=#666666;align=left;fontSize=17;spacingLeft=4;spacingTop=-3;whiteSpace=wrap;strokeColor=none;mainText=" vertex="1" parent="XWpHCNLex6STp4vf1nMq-75">
          <mxGeometry x="4.5" width="118" height="30" as="geometry" />
        </mxCell>
        <mxCell id="XWpHCNLex6STp4vf1nMq-71" value="391 &lt;font style=&quot;font-size: 26px;&quot;&gt;|&lt;/font&gt;" style="strokeWidth=1;shadow=0;dashed=0;align=center;html=1;shape=mxgraph.mockup.text.textBox;fontColor=#666666;align=left;fontSize=17;spacingLeft=4;spacingTop=-3;whiteSpace=wrap;strokeColor=#666666;mainText=" vertex="1" parent="XWpHCNLex6STp4vf1nMq-75">
          <mxGeometry x="37.5" y="32" width="52" height="30" as="geometry" />
        </mxCell>
        <mxCell id="XWpHCNLex6STp4vf1nMq-72" value="391 &lt;font style=&quot;font-size: 26px;&quot;&gt;|&lt;/font&gt;" style="strokeWidth=1;shadow=0;dashed=0;align=center;html=1;shape=mxgraph.mockup.text.textBox;fontColor=#666666;align=left;fontSize=17;spacingLeft=4;spacingTop=-3;whiteSpace=wrap;strokeColor=#666666;mainText=" vertex="1" parent="XWpHCNLex6STp4vf1nMq-75">
          <mxGeometry x="37.5" y="127" width="52" height="30" as="geometry" />
        </mxCell>
        <mxCell id="XWpHCNLex6STp4vf1nMq-73" value="Frame Length" style="strokeWidth=1;shadow=0;dashed=0;align=center;html=1;shape=mxgraph.mockup.text.textBox;fontColor=#666666;align=left;fontSize=17;spacingLeft=4;spacingTop=-3;whiteSpace=wrap;strokeColor=none;mainText=" vertex="1" parent="XWpHCNLex6STp4vf1nMq-75">
          <mxGeometry y="95" width="127" height="30" as="geometry" />
        </mxCell>
        <mxCell id="XWpHCNLex6STp4vf1nMq-74" value="&lt;font style=&quot;font-size: 15px;&quot;&gt;Lock&lt;/font&gt;" style="strokeWidth=1;shadow=0;dashed=0;align=center;html=1;shape=mxgraph.mockup.buttons.onOffButton;gradientColor=none;strokeColor=#999999;buttonState=on;fillColor2=#008cff;fontColor=#ffffff;fontSize=17;mainText=;spacingRight=40;fontStyle=1;whiteSpace=wrap;" vertex="1" parent="XWpHCNLex6STp4vf1nMq-75">
          <mxGeometry x="9" y="195" width="109" height="22" as="geometry" />
        </mxCell>
        <mxCell id="XWpHCNLex6STp4vf1nMq-76" value="" style="verticalLabelPosition=bottom;shadow=0;dashed=0;align=center;html=1;verticalAlign=top;strokeWidth=1;shape=mxgraph.mockup.forms.colorPicker;chosenColor=#aaddff;" vertex="1" parent="1">
          <mxGeometry x="630" y="384" width="40" height="40" as="geometry" />
        </mxCell>
        <mxCell id="XWpHCNLex6STp4vf1nMq-77" value="Default Background" style="strokeWidth=1;shadow=0;dashed=0;align=right;html=1;shape=mxgraph.mockup.text.textBox;fontColor=#666666;align=left;fontSize=17;spacingLeft=4;spacingTop=-3;whiteSpace=wrap;strokeColor=none;mainText=;textDirection=ltr;" vertex="1" parent="1">
          <mxGeometry x="518" y="387.5" width="104" height="30" as="geometry" />
        </mxCell>
        <mxCell id="XWpHCNLex6STp4vf1nMq-78" value="Add Element" style="strokeWidth=1;shadow=0;dashed=0;align=center;html=1;shape=mxgraph.mockup.buttons.button;strokeColor=#666666;fontColor=#ffffff;mainText=;buttonStyle=round;fontSize=17;fontStyle=1;fillColor=#008cff;whiteSpace=wrap;" vertex="1" parent="1">
          <mxGeometry x="154" y="600" width="140" height="30" as="geometry" />
        </mxCell>
        <mxCell id="XWpHCNLex6STp4vf1nMq-79" value="" style="strokeWidth=1;shadow=0;dashed=0;align=center;html=1;shape=mxgraph.mockup.containers.rrect;rSize=0;strokeColor=#666666;fontColor=#666666;fontSize=17;verticalAlign=top;whiteSpace=wrap;fillColor=#ffffff;spacingTop=32;fontStyle=1" vertex="1" parent="1">
          <mxGeometry x="130" y="660" width="620" height="420" as="geometry" />
        </mxCell>
        <mxCell id="XWpHCNLex6STp4vf1nMq-80" value="Add Video Element" style="strokeWidth=1;shadow=0;dashed=0;align=center;html=1;shape=mxgraph.mockup.containers.rrect;rSize=0;fontSize=17;fontColor=#666666;strokeColor=#666666;align=left;spacingLeft=8;fillColor=none;resizeWidth=1;whiteSpace=wrap;" vertex="1" parent="XWpHCNLex6STp4vf1nMq-79">
          <mxGeometry width="620" height="30" relative="1" as="geometry" />
        </mxCell>
        <mxCell id="XWpHCNLex6STp4vf1nMq-81" value="" style="shape=ellipse;strokeColor=#008cff;resizable=0;fillColor=none;html=1;" vertex="1" parent="XWpHCNLex6STp4vf1nMq-80">
          <mxGeometry x="1" y="0.5" width="20" height="20" relative="1" as="geometry">
            <mxPoint x="-25" y="-10" as="offset" />
          </mxGeometry>
        </mxCell>
        <mxCell id="XWpHCNLex6STp4vf1nMq-82" value="Cancel" style="strokeWidth=1;shadow=0;dashed=0;align=center;html=1;shape=mxgraph.mockup.containers.rrect;rSize=0;fontSize=16;fontColor=#666666;strokeColor=#c4c4c4;whiteSpace=wrap;fillColor=none;" vertex="1" parent="XWpHCNLex6STp4vf1nMq-79">
          <mxGeometry x="0.25" y="1" width="90" height="25" relative="1" as="geometry">
            <mxPoint x="-45" y="-33" as="offset" />
          </mxGeometry>
        </mxCell>
        <mxCell id="XWpHCNLex6STp4vf1nMq-83" value="OK" style="strokeWidth=1;shadow=0;dashed=0;align=center;html=1;shape=mxgraph.mockup.containers.rrect;rSize=0;fontSize=16;fontColor=#666666;strokeColor=#c4c4c4;whiteSpace=wrap;fillColor=none;" vertex="1" parent="XWpHCNLex6STp4vf1nMq-79">
          <mxGeometry x="0.75" y="1" width="90" height="25" relative="1" as="geometry">
            <mxPoint x="-45" y="-33" as="offset" />
          </mxGeometry>
        </mxCell>
        <mxCell id="XWpHCNLex6STp4vf1nMq-84" value="Speak Text" style="strokeWidth=1;shadow=0;dashed=0;align=center;html=1;shape=mxgraph.mockup.buttons.onOffButton;gradientColor=none;strokeColor=#999999;buttonState=on;fillColor2=#008cff;fontColor=#ffffff;fontSize=17;mainText=;spacingRight=40;fontStyle=1;whiteSpace=wrap;" vertex="1" parent="XWpHCNLex6STp4vf1nMq-79">
          <mxGeometry x="162" y="50" width="180" height="20" as="geometry" />
        </mxCell>
        <mxCell id="XWpHCNLex6STp4vf1nMq-86" value="Upload Text File" style="strokeWidth=1;shadow=0;dashed=0;align=center;html=1;shape=mxgraph.mockup.buttons.button;strokeColor=#666666;fontColor=#ffffff;mainText=;buttonStyle=round;fontSize=17;fontStyle=1;fillColor=#008cff;whiteSpace=wrap;" vertex="1" parent="XWpHCNLex6STp4vf1nMq-79">
          <mxGeometry x="165" y="140" width="150" height="30" as="geometry" />
        </mxCell>
        <mxCell id="XWpHCNLex6STp4vf1nMq-87" value="&lt;table cellpadding=&quot;0&quot; cellspacing=&quot;0&quot; style=&quot;width:100%;height:100%;&quot;&gt;&lt;tbody&gt;&lt;tr&gt;&lt;td style=&quot;width:85%&quot;&gt;1:03&lt;b&gt;&lt;font style=&quot;font-size: 20px;&quot;&gt;|&lt;/font&gt;&lt;/b&gt;&lt;/td&gt;&lt;td style=&quot;width:15%&quot;&gt;&lt;/td&gt;&lt;/tr&gt;&lt;/tbody&gt;&lt;/table&gt;" style="strokeWidth=1;shadow=0;dashed=0;align=center;html=1;shape=mxgraph.mockup.forms.spinner;strokeColor=#999999;spinLayout=right;spinStyle=normal;adjStyle=triangle;fillColor=#aaddff;fontSize=17;fontColor=#666666;mainText=;html=1;overflow=fill;" vertex="1" parent="XWpHCNLex6STp4vf1nMq-79">
          <mxGeometry x="167" y="221" width="103" height="30" as="geometry" />
        </mxCell>
        <mxCell id="XWpHCNLex6STp4vf1nMq-91" value="Duration" style="strokeWidth=1;shadow=0;dashed=0;align=center;html=1;shape=mxgraph.mockup.text.textBox;fontColor=#666666;align=left;fontSize=17;spacingLeft=4;spacingTop=-3;whiteSpace=wrap;strokeColor=none;mainText=;fontStyle=1" vertex="1" parent="XWpHCNLex6STp4vf1nMq-79">
          <mxGeometry x="165" y="190" width="80" height="30" as="geometry" />
        </mxCell>
        <mxCell id="XWpHCNLex6STp4vf1nMq-93" value="&lt;table cellpadding=&quot;0&quot; cellspacing=&quot;0&quot; style=&quot;width:100%;height:100%;&quot;&gt;&lt;tbody&gt;&lt;tr&gt;&lt;td style=&quot;width:85%&quot;&gt;2:02&lt;b&gt;&lt;font style=&quot;font-size: 20px;&quot;&gt;|&lt;/font&gt;&lt;/b&gt;&lt;/td&gt;&lt;td style=&quot;width:15%&quot;&gt;&lt;/td&gt;&lt;/tr&gt;&lt;/tbody&gt;&lt;/table&gt;" style="strokeWidth=1;shadow=0;dashed=0;align=center;html=1;shape=mxgraph.mockup.forms.spinner;strokeColor=#999999;spinLayout=right;spinStyle=normal;adjStyle=triangle;fillColor=#aaddff;fontSize=17;fontColor=#666666;mainText=;html=1;overflow=fill;" vertex="1" parent="XWpHCNLex6STp4vf1nMq-79">
          <mxGeometry x="304" y="290" width="103" height="30" as="geometry" />
        </mxCell>
        <mxCell id="XWpHCNLex6STp4vf1nMq-94" value="&lt;table cellpadding=&quot;0&quot; cellspacing=&quot;0&quot; style=&quot;width:100%;height:100%;&quot;&gt;&lt;tbody&gt;&lt;tr&gt;&lt;td style=&quot;width:85%&quot;&gt;0:59&lt;b&gt;&lt;font style=&quot;font-size: 20px;&quot;&gt;|&lt;/font&gt;&lt;/b&gt;&lt;/td&gt;&lt;td style=&quot;width:15%&quot;&gt;&lt;/td&gt;&lt;/tr&gt;&lt;/tbody&gt;&lt;/table&gt;" style="strokeWidth=1;shadow=0;dashed=0;align=center;html=1;shape=mxgraph.mockup.forms.spinner;strokeColor=#999999;spinLayout=right;spinStyle=normal;adjStyle=triangle;fillColor=#aaddff;fontSize=17;fontColor=#666666;mainText=;html=1;overflow=fill;" vertex="1" parent="XWpHCNLex6STp4vf1nMq-79">
          <mxGeometry x="170" y="290" width="103" height="30" as="geometry" />
        </mxCell>
        <mxCell id="XWpHCNLex6STp4vf1nMq-102" value="" style="edgeStyle=orthogonalEdgeStyle;rounded=0;orthogonalLoop=1;jettySize=auto;html=1;" edge="1" parent="XWpHCNLex6STp4vf1nMq-79" source="XWpHCNLex6STp4vf1nMq-95" target="XWpHCNLex6STp4vf1nMq-101">
          <mxGeometry relative="1" as="geometry" />
        </mxCell>
        <mxCell id="XWpHCNLex6STp4vf1nMq-95" value="" style="strokeColor=#999999;verticalLabelPosition=bottom;shadow=0;dashed=0;verticalAlign=top;strokeWidth=2;html=1;shape=mxgraph.mockup.misc.volumeIcon;" vertex="1" parent="XWpHCNLex6STp4vf1nMq-79">
          <mxGeometry x="450" y="260" width="25" height="25" as="geometry" />
        </mxCell>
        <mxCell id="XWpHCNLex6STp4vf1nMq-97" value="From" style="strokeWidth=1;shadow=0;dashed=0;align=center;html=1;shape=mxgraph.mockup.text.textBox;fontColor=#666666;align=left;fontSize=17;spacingLeft=4;spacingTop=-3;whiteSpace=wrap;strokeColor=none;mainText=" vertex="1" parent="XWpHCNLex6STp4vf1nMq-79">
          <mxGeometry x="164" y="260" width="50" height="30" as="geometry" />
        </mxCell>
        <mxCell id="XWpHCNLex6STp4vf1nMq-98" value="To" style="strokeWidth=1;shadow=0;dashed=0;align=center;html=1;shape=mxgraph.mockup.text.textBox;fontColor=#666666;align=left;fontSize=17;spacingLeft=4;spacingTop=-3;whiteSpace=wrap;strokeColor=none;mainText=" vertex="1" parent="XWpHCNLex6STp4vf1nMq-79">
          <mxGeometry x="304" y="260" width="50" height="30" as="geometry" />
        </mxCell>
        <mxCell id="XWpHCNLex6STp4vf1nMq-101" value="Text volume" style="strokeWidth=1;shadow=0;dashed=0;align=center;html=1;shape=mxgraph.mockup.text.textBox;fontColor=#666666;align=left;fontSize=17;spacingLeft=4;spacingTop=-3;whiteSpace=wrap;strokeColor=none;mainText=" vertex="1" parent="XWpHCNLex6STp4vf1nMq-79">
          <mxGeometry x="484" y="255.5" width="97" height="39" as="geometry" />
        </mxCell>
        <mxCell id="XWpHCNLex6STp4vf1nMq-103" value="4" style="strokeWidth=1;shadow=0;dashed=0;align=center;html=1;shape=mxgraph.mockup.forms.spinner;strokeColor=#999999;spinLayout=right;spinStyle=normal;adjStyle=triangle;fillColor=#aaddff;fontSize=17;fontColor=#666666;mainText=;html=1;overflow=fill;" vertex="1" parent="XWpHCNLex6STp4vf1nMq-79">
          <mxGeometry x="460" y="290" width="103" height="30" as="geometry" />
        </mxCell>
        <mxCell id="XWpHCNLex6STp4vf1nMq-58" value="" style="strokeWidth=1;shadow=0;dashed=0;align=center;html=1;shape=mxgraph.mockup.rrect;rSize=10;strokeColor=#666666;" vertex="1" parent="1">
          <mxGeometry x="147" y="706" width="120" height="200" as="geometry" />
        </mxCell>
        <mxCell id="XWpHCNLex6STp4vf1nMq-59" value="Audio" style="strokeColor=inherit;fillColor=inherit;gradientColor=inherit;strokeWidth=1;shadow=0;dashed=0;align=center;html=1;shape=mxgraph.mockup.rrect;rSize=0;fontSize=17;fontColor=#666666;fontStyle=1;resizeWidth=1;whiteSpace=wrap;" vertex="1" parent="XWpHCNLex6STp4vf1nMq-58">
          <mxGeometry width="120" height="50" relative="1" as="geometry">
            <mxPoint y="50" as="offset" />
          </mxGeometry>
        </mxCell>
        <mxCell id="XWpHCNLex6STp4vf1nMq-60" value="Video" style="strokeColor=inherit;fillColor=inherit;gradientColor=inherit;strokeWidth=1;shadow=0;dashed=0;align=center;html=1;shape=mxgraph.mockup.rrect;rSize=0;fontSize=17;fontColor=#666666;fontStyle=1;resizeWidth=1;whiteSpace=wrap;" vertex="1" parent="XWpHCNLex6STp4vf1nMq-58">
          <mxGeometry width="120" height="50" relative="1" as="geometry">
            <mxPoint y="100" as="offset" />
          </mxGeometry>
        </mxCell>
        <mxCell id="XWpHCNLex6STp4vf1nMq-61" value="Image" style="strokeColor=inherit;fillColor=inherit;gradientColor=inherit;strokeWidth=1;shadow=0;dashed=0;align=center;html=1;shape=mxgraph.mockup.bottomButton;rSize=10;fontSize=17;fontColor=#666666;fontStyle=1;resizeWidth=1;whiteSpace=wrap;" vertex="1" parent="XWpHCNLex6STp4vf1nMq-58">
          <mxGeometry y="1" width="120" height="50" relative="1" as="geometry">
            <mxPoint y="-50" as="offset" />
          </mxGeometry>
        </mxCell>
        <mxCell id="XWpHCNLex6STp4vf1nMq-62" value="Text" style="strokeWidth=1;shadow=0;dashed=0;align=center;html=1;shape=mxgraph.mockup.topButton;rSize=10;fontSize=17;fontColor=#ffffff;fontStyle=1;fillColor=#008cff;strokeColor=#008cff;resizeWidth=1;whiteSpace=wrap;" vertex="1" parent="XWpHCNLex6STp4vf1nMq-58">
          <mxGeometry width="120" height="50" relative="1" as="geometry" />
        </mxCell>
        <mxCell id="XWpHCNLex6STp4vf1nMq-85" value="Type text here" style="strokeWidth=1;shadow=0;dashed=0;align=center;html=1;shape=mxgraph.mockup.text.textBox;fontColor=#666666;align=left;fontSize=17;spacingLeft=4;spacingTop=-3;whiteSpace=wrap;strokeColor=#666666;mainText=" vertex="1" parent="1">
          <mxGeometry x="296" y="754" width="150" height="30" as="geometry" />
        </mxCell>
        <mxCell id="XWpHCNLex6STp4vf1nMq-88" value="" style="strokeColor=none;verticalLabelPosition=bottom;shadow=0;dashed=0;verticalAlign=top;strokeWidth=2;html=1;shape=mxgraph.mockup.misc.trashcanIcon;" vertex="1" parent="1">
          <mxGeometry x="267" y="233" width="20" height="20" as="geometry" />
        </mxCell>
        <mxCell id="XWpHCNLex6STp4vf1nMq-89" value="" style="strokeColor=none;verticalLabelPosition=bottom;shadow=0;dashed=0;verticalAlign=top;strokeWidth=2;html=1;shape=mxgraph.mockup.misc.trashcanIcon;" vertex="1" parent="1">
          <mxGeometry x="266" y="260" width="20" height="20" as="geometry" />
        </mxCell>
        <mxCell id="XWpHCNLex6STp4vf1nMq-90" value="" style="strokeColor=none;verticalLabelPosition=bottom;shadow=0;dashed=0;verticalAlign=top;strokeWidth=2;html=1;shape=mxgraph.mockup.misc.trashcanIcon;" vertex="1" parent="1">
          <mxGeometry x="267" y="288" width="20" height="20" as="geometry" />
        </mxCell>
      </root>
    </mxGraphModel>
  </diagram>
</mxfile>
